# xmcd
#
# Track frame offsets:
#	150
#	11920
#	23115
#	40060
#	55492
#	82475
#	97573
#	111146
#	127582
#	143398
#	156266
#	172372
#	187013
#	199435
#	214845
#	229596
#
# Disc length: 3230 seconds
#
# Revision: 0
# Processed by: cddbd v1.5.2PL0 Copyright (c) Steve Scherf et al.
# Submitted via: EasyCDDAExtractor 16.0.6.1
#
DISCID=dc0c9c10
DTITLE=Πουλόπουλος Γιάννης - Ενενήντα έξι μεγ. επιτυχίες-Γ. Πουλόπουλος 4
DYEAR=2010
DGENRE=Ποικίλη
TTITLE0=Πουλόπουλος Γιάννης - Ποιά νύχτα σ' έκλεψε [Μ. Πλέσσας-Λ. Παπαδόπουλος
TTITLE0=]
TTITLE1=Πουλόπουλος Γιάννης - Βρέχει πάλι απόψε [Μ. Πλέσσας-Ά. Δασκαλόπουλος]
TTITLE2=Πουλόπουλος Γιάννης - Έπεφτε βαθιά σιωπή [Μ. Πλέσσας-Λ. Παπαδόπουλος]
TTITLE3=Πουλόπουλος Γιάννης - Νύχτωσε χωρίς φεγγάρι [Απόστολος Καλδάρας]
TTITLE4=Πουλόπουλος Γιάννης-χορωδία - Άϊντε και ντε [Ν. Μαμαγκάκης-Γ. Ρίτσος]
TTITLE5=Πουλόπουλος Γιάννης - Δύσκολες στιγμές [Αντ. Στεφανίδης-Σαράντης Αλιβι
TTITLE5=ζάτος]
TTITLE6=Πουλόπουλος Γιάννης - Παίρνω το δρόμο μου [Τ. Χαμουρτιάδης-Γ. Δημητράς
TTITLE6=]
TTITLE7=Πουλόπουλος Γιάννης - Σε ψάχνω [Βασ. Κουμπής-Λ. Παπαδόπουλος]
TTITLE8=Πουλόπουλος Γιάννης - Ο καϋμός [Μ. Θεοδωράκης-Δημ. Χριστοδούλου]
TTITLE9=Πουλόπουλος Γιάννης-χορωδία - Το τραγούδι της ταβέρνας [Γ. Σπανός-Αργ.
TTITLE9=Εφταλιώτης]
TTITLE10=Πουλόπουλος Γιάννης - Πέτρινα λουλούδια [Ν. Μαμαγκάκης-Βασ. Βασιλικός
TTITLE10=]
TTITLE11=Πουλόπουλος Γιάννης-χορωδία - Το φεγγάρι έρημο [Μ. Λοΐζος-Μάρω Λήμνου
TTITLE11=]
TTITLE12=Πουλόπουλος Γιάννης - Σε περιμένω [Ν. Σκέμπρης-Διον. Τζεφρώνης]
TTITLE13=Πουλόπουλος Γιάννης - Κλείσαν οι δρόμοι με βροχή [Κ. Καπνίσης-Μιχ. Πα
TTITLE13=πανικολάου]
TTITLE14=Πουλόπουλος Γιάννης - Διπλή ζωή [Χάρης Λυμπερόπουλος]
TTITLE15=Πουλόπουλος Γιάννης - Με μιά βροχή [Ν. Καλλίτσης-Κων. Λιακάκος]
EXTD=
EXTT0=
EXTT1=
EXTT2=
EXTT3=
EXTT4=
EXTT5=
EXTT6=
EXTT7=
EXTT8=
EXTT9=
EXTT10=
EXTT11=
EXTT12=
EXTT13=
EXTT14=
EXTT15=
PLAYORDER=
